solid ASCII
  facet normal -1.000000e+00 0.000000e+00 0.000000e+00
    outer loop
      vertex   -1.500000e+01 2.450000e+00 0.000000e+00
      vertex   -1.500000e+01 -2.450000e+00 0.000000e+00
      vertex   -1.500000e+01 2.450000e+00 9.000000e-01
    endloop
  endfacet
  facet normal -1.000000e+00 -0.000000e+00 0.000000e+00
    outer loop
      vertex   -1.500000e+01 2.450000e+00 9.000000e-01
      vertex   -1.500000e+01 -2.450000e+00 0.000000e+00
      vertex   -1.500000e+01 -2.450000e+00 9.000000e-01
    endloop
  endfacet
  facet normal 0.000000e+00 1.000000e+00 -0.000000e+00
    outer loop
      vertex   1.255000e+01 2.450000e+00 0.000000e+00
      vertex   -1.500000e+01 2.450000e+00 0.000000e+00
      vertex   1.255000e+01 2.450000e+00 9.000000e-01
    endloop
  endfacet
  facet normal 0.000000e+00 1.000000e+00 0.000000e+00
    outer loop
      vertex   1.255000e+01 2.450000e+00 9.000000e-01
      vertex   -1.500000e+01 2.450000e+00 0.000000e+00
      vertex   -1.500000e+01 2.450000e+00 9.000000e-01
    endloop
  endfacet
  facet normal 6.037850e-02 -9.981756e-01 0.000000e+00
    outer loop
      vertex   1.255000e+01 -2.450000e+00 9.000000e-01
      vertex   1.255000e+01 -2.450000e+00 0.000000e+00
      vertex   1.284531e+01 -2.432137e+00 9.000000e-01
    endloop
  endfacet
  facet normal 6.037850e-02 -9.981756e-01 0.000000e+00
    outer loop
      vertex   1.284531e+01 -2.432137e+00 9.000000e-01
      vertex   1.255000e+01 -2.450000e+00 0.000000e+00
      vertex   1.284531e+01 -2.432137e+00 0.000000e+00
    endloop
  endfacet
  facet normal 1.802550e-01 -9.836199e-01 0.000000e+00
    outer loop
      vertex   1.284531e+01 -2.432137e+00 9.000000e-01
      vertex   1.284531e+01 -2.432137e+00 0.000000e+00
      vertex   1.313632e+01 -2.378808e+00 0.000000e+00
    endloop
  endfacet
  facet normal 1.802550e-01 -9.836199e-01 9.244696e-19
    outer loop
      vertex   1.284531e+01 -2.432137e+00 9.000000e-01
      vertex   1.313632e+01 -2.378808e+00 0.000000e+00
      vertex   1.313632e+01 -2.378808e+00 9.000000e-01
    endloop
  endfacet
  facet normal 2.975031e-01 -9.547209e-01 0.000000e+00
    outer loop
      vertex   1.313632e+01 -2.378808e+00 9.000000e-01
      vertex   1.313632e+01 -2.378808e+00 0.000000e+00
      vertex   1.341878e+01 -2.290790e+00 0.000000e+00
    endloop
  endfacet
  facet normal 2.975031e-01 -9.547209e-01 -2.314238e-19
    outer loop
      vertex   1.313632e+01 -2.378808e+00 9.000000e-01
      vertex   1.341878e+01 -2.290790e+00 0.000000e+00
      vertex   1.341878e+01 -2.290790e+00 9.000000e-01
    endloop
  endfacet
  facet normal 4.104128e-01 -9.118998e-01 0.000000e+00
    outer loop
      vertex   1.341878e+01 -2.290790e+00 9.000000e-01
      vertex   1.341878e+01 -2.290790e+00 0.000000e+00
      vertex   1.368857e+01 -2.169368e+00 0.000000e+00
    endloop
  endfacet
  facet normal 4.104128e-01 -9.118998e-01 7.648546e-18
    outer loop
      vertex   1.341878e+01 -2.290790e+00 9.000000e-01
      vertex   1.368857e+01 -2.169368e+00 0.000000e+00
      vertex   1.368857e+01 -2.169368e+00 9.000000e-01
    endloop
  endfacet
  facet normal 5.173378e-01 -8.557813e-01 0.000000e+00
    outer loop
      vertex   1.368857e+01 -2.169368e+00 9.000000e-01
      vertex   1.368857e+01 -2.169368e+00 0.000000e+00
      vertex   1.394176e+01 -2.016311e+00 0.000000e+00
    endloop
  endfacet
  facet normal 5.173378e-01 -8.557813e-01 -3.584193e-18
    outer loop
      vertex   1.368857e+01 -2.169368e+00 9.000000e-01
      vertex   1.394176e+01 -2.016311e+00 0.000000e+00
      vertex   1.394176e+01 -2.016311e+00 9.000000e-01
    endloop
  endfacet
  facet normal 6.167189e-01 -7.871835e-01 0.000000e+00
    outer loop
      vertex   1.394176e+01 -2.016311e+00 9.000000e-01
      vertex   1.394176e+01 -2.016311e+00 0.000000e+00
      vertex   1.417465e+01 -1.833852e+00 0.000000e+00
    endloop
  endfacet
  facet normal 6.167189e-01 -7.871835e-01 5.507810e-18
    outer loop
      vertex   1.394176e+01 -2.016311e+00 9.000000e-01
      vertex   1.417465e+01 -1.833852e+00 0.000000e+00
      vertex   1.417465e+01 -1.833852e+00 9.000000e-01
    endloop
  endfacet
  facet normal 7.071068e-01 -7.071068e-01 0.000000e+00
    outer loop
      vertex   1.417465e+01 -1.833852e+00 9.000000e-01
      vertex   1.417465e+01 -1.833852e+00 0.000000e+00
      vertex   1.438385e+01 -1.624651e+00 0.000000e+00
    endloop
  endfacet
  facet normal 7.071068e-01 -7.071068e-01 -6.509859e-19
    outer loop
      vertex   1.417465e+01 -1.833852e+00 9.000000e-01
      vertex   1.438385e+01 -1.624651e+00 0.000000e+00
      vertex   1.438385e+01 -1.624651e+00 9.000000e-01
    endloop
  endfacet
  facet normal 7.871835e-01 -6.167189e-01 0.000000e+00
    outer loop
      vertex   1.438385e+01 -1.624651e+00 9.000000e-01
      vertex   1.438385e+01 -1.624651e+00 0.000000e+00
      vertex   1.456631e+01 -1.391759e+00 0.000000e+00
    endloop
  endfacet
  facet normal 7.871835e-01 -6.167189e-01 6.062490e-18
    outer loop
      vertex   1.438385e+01 -1.624651e+00 9.000000e-01
      vertex   1.456631e+01 -1.391759e+00 0.000000e+00
      vertex   1.456631e+01 -1.391759e+00 9.000000e-01
    endloop
  endfacet
  facet normal 8.557813e-01 -5.173378e-01 0.000000e+00
    outer loop
      vertex   1.456631e+01 -1.391759e+00 9.000000e-01
      vertex   1.456631e+01 -1.391759e+00 0.000000e+00
      vertex   1.471937e+01 -1.138572e+00 0.000000e+00
    endloop
  endfacet
  facet normal 8.557813e-01 -5.173378e-01 7.014247e-18
    outer loop
      vertex   1.456631e+01 -1.391759e+00 9.000000e-01
      vertex   1.471937e+01 -1.138572e+00 0.000000e+00
      vertex   1.471937e+01 -1.138572e+00 9.000000e-01
    endloop
  endfacet
  facet normal 9.118998e-01 -4.104128e-01 0.000000e+00
    outer loop
      vertex   1.471937e+01 -1.138572e+00 9.000000e-01
      vertex   1.471937e+01 -1.138572e+00 0.000000e+00
      vertex   1.484079e+01 -8.687823e-01 0.000000e+00
    endloop
  endfacet
  facet normal 9.118998e-01 -4.104128e-01 -1.490986e-18
    outer loop
      vertex   1.471937e+01 -1.138572e+00 9.000000e-01
      vertex   1.484079e+01 -8.687823e-01 0.000000e+00
      vertex   1.484079e+01 -8.687823e-01 9.000000e-01
    endloop
  endfacet
  facet normal 9.547209e-01 -2.975031e-01 0.000000e+00
    outer loop
      vertex   1.484079e+01 -8.687823e-01 9.000000e-01
      vertex   1.484079e+01 -8.687823e-01 0.000000e+00
      vertex   1.492881e+01 -5.863238e-01 0.000000e+00
    endloop
  endfacet
  facet normal 9.547209e-01 -2.975031e-01 -8.874252e-20
    outer loop
      vertex   1.484079e+01 -8.687823e-01 9.000000e-01
      vertex   1.492881e+01 -5.863238e-01 0.000000e+00
      vertex   1.492881e+01 -5.863238e-01 9.000000e-01
    endloop
  endfacet
  facet normal 9.836199e-01 -1.802550e-01 0.000000e+00
    outer loop
      vertex   1.492881e+01 -5.863238e-01 9.000000e-01
      vertex   1.492881e+01 -5.863238e-01 0.000000e+00
      vertex   1.498214e+01 -2.953152e-01 0.000000e+00
    endloop
  endfacet
  facet normal 9.836199e-01 -1.802550e-01 -7.626047e-19
    outer loop
      vertex   1.492881e+01 -5.863238e-01 9.000000e-01
      vertex   1.498214e+01 -2.953152e-01 0.000000e+00
      vertex   1.498214e+01 -2.953152e-01 9.000000e-01
    endloop
  endfacet
  facet normal 9.981756e-01 -6.037850e-02 0.000000e+00
    outer loop
      vertex   1.498214e+01 -2.953152e-01 9.000000e-01
      vertex   1.498214e+01 -2.953152e-01 0.000000e+00
      vertex   1.500000e+01 -3.725290e-07 0.000000e+00
    endloop
  endfacet
  facet normal 9.981756e-01 -6.037850e-02 2.036887e-19
    outer loop
      vertex   1.498214e+01 -2.953152e-01 9.000000e-01
      vertex   1.500000e+01 -3.725290e-07 0.000000e+00
      vertex   1.500000e+01 -3.725290e-07 9.000000e-01
    endloop
  endfacet
  facet normal 9.981756e-01 6.037850e-02 0.000000e+00
    outer loop
      vertex   1.500000e+01 -3.725290e-07 9.000000e-01
      vertex   1.500000e+01 -3.725290e-07 0.000000e+00
      vertex   1.498214e+01 2.953145e-01 0.000000e+00
    endloop
  endfacet
  facet normal 9.981756e-01 6.037850e-02 1.205116e-18
    outer loop
      vertex   1.500000e+01 -3.725290e-07 9.000000e-01
      vertex   1.498214e+01 2.953145e-01 0.000000e+00
      vertex   1.498214e+01 2.953145e-01 9.000000e-01
    endloop
  endfacet
  facet normal 9.836199e-01 1.802550e-01 0.000000e+00
    outer loop
      vertex   1.498214e+01 2.953145e-01 9.000000e-01
      vertex   1.498214e+01 2.953145e-01 0.000000e+00
      vertex   1.492881e+01 5.863230e-01 0.000000e+00
    endloop
  endfacet
  facet normal 9.836199e-01 1.802550e-01 -2.354441e-18
    outer loop
      vertex   1.498214e+01 2.953145e-01 9.000000e-01
      vertex   1.492881e+01 5.863230e-01 0.000000e+00
      vertex   1.492881e+01 5.863230e-01 9.000000e-01
    endloop
  endfacet
  facet normal 9.547209e-01 2.975031e-01 0.000000e+00
    outer loop
      vertex   1.492881e+01 5.863230e-01 9.000000e-01
      vertex   1.492881e+01 5.863230e-01 0.000000e+00
      vertex   1.484079e+01 8.687816e-01 0.000000e+00
    endloop
  endfacet
  facet normal 9.547209e-01 2.975031e-01 -1.222186e-18
    outer loop
      vertex   1.492881e+01 5.863230e-01 9.000000e-01
      vertex   1.484079e+01 8.687816e-01 0.000000e+00
      vertex   1.484079e+01 8.687816e-01 9.000000e-01
    endloop
  endfacet
  facet normal 9.118998e-01 4.104128e-01 0.000000e+00
    outer loop
      vertex   1.484079e+01 8.687816e-01 9.000000e-01
      vertex   1.484079e+01 8.687816e-01 0.000000e+00
      vertex   1.471937e+01 1.138571e+00 0.000000e+00
    endloop
  endfacet
  facet normal 9.118998e-01 4.104128e-01 1.044085e-17
    outer loop
      vertex   1.484079e+01 8.687816e-01 9.000000e-01
      vertex   1.471937e+01 1.138571e+00 0.000000e+00
      vertex   1.471937e+01 1.138571e+00 9.000000e-01
    endloop
  endfacet
  facet normal 8.557813e-01 5.173378e-01 0.000000e+00
    outer loop
      vertex   1.471937e+01 1.138571e+00 9.000000e-01
      vertex   1.471937e+01 1.138571e+00 0.000000e+00
      vertex   1.456631e+01 1.391758e+00 0.000000e+00
    endloop
  endfacet
  facet normal 8.557813e-01 5.173378e-01 -7.014247e-18
    outer loop
      vertex   1.471937e+01 1.138571e+00 9.000000e-01
      vertex   1.456631e+01 1.391758e+00 0.000000e+00
      vertex   1.456631e+01 1.391758e+00 9.000000e-01
    endloop
  endfacet
  facet normal 7.871835e-01 6.167189e-01 0.000000e+00
    outer loop
      vertex   1.456631e+01 1.391758e+00 9.000000e-01
      vertex   1.456631e+01 1.391758e+00 0.000000e+00
      vertex   1.438385e+01 1.624650e+00 0.000000e+00
    endloop
  endfacet
  facet normal 7.871835e-01 6.167189e-01 1.158995e-17
    outer loop
      vertex   1.456631e+01 1.391758e+00 9.000000e-01
      vertex   1.438385e+01 1.624650e+00 0.000000e+00
      vertex   1.438385e+01 1.624650e+00 9.000000e-01
    endloop
  endfacet
  facet normal 7.071068e-01 7.071068e-01 0.000000e+00
    outer loop
      vertex   1.438385e+01 1.624650e+00 9.000000e-01
      vertex   1.438385e+01 1.624650e+00 0.000000e+00
      vertex   1.417465e+01 1.833851e+00 0.000000e+00
    endloop
  endfacet
  facet normal 7.071068e-01 7.071068e-01 -7.312173e-18
    outer loop
      vertex   1.438385e+01 1.624650e+00 9.000000e-01
      vertex   1.417465e+01 1.833851e+00 0.000000e+00
      vertex   1.417465e+01 1.833851e+00 9.000000e-01
    endloop
  endfacet
  facet normal 6.167189e-01 7.871835e-01 0.000000e+00
    outer loop
      vertex   1.417465e+01 1.833851e+00 9.000000e-01
      vertex   1.417465e+01 1.833851e+00 0.000000e+00
      vertex   1.394176e+01 2.016310e+00 0.000000e+00
    endloop
  endfacet
  facet normal 6.167189e-01 7.871835e-01 -3.034237e-18
    outer loop
      vertex   1.417465e+01 1.833851e+00 9.000000e-01
      vertex   1.394176e+01 2.016310e+00 0.000000e+00
      vertex   1.394176e+01 2.016310e+00 9.000000e-01
    endloop
  endfacet
  facet normal 5.173378e-01 8.557813e-01 0.000000e+00
    outer loop
      vertex   1.394176e+01 2.016310e+00 9.000000e-01
      vertex   1.394176e+01 2.016310e+00 0.000000e+00
      vertex   1.368857e+01 2.169367e+00 0.000000e+00
    endloop
  endfacet
  facet normal 5.173378e-01 8.557813e-01 -1.730915e-18
    outer loop
      vertex   1.394176e+01 2.016310e+00 9.000000e-01
      vertex   1.368857e+01 2.169367e+00 0.000000e+00
      vertex   1.368857e+01 2.169367e+00 9.000000e-01
    endloop
  endfacet
  facet normal 4.104128e-01 9.118998e-01 0.000000e+00
    outer loop
      vertex   1.368857e+01 2.169367e+00 9.000000e-01
      vertex   1.368857e+01 2.169367e+00 0.000000e+00
      vertex   1.341878e+01 2.290789e+00 0.000000e+00
    endloop
  endfacet
  facet normal 4.104128e-01 9.118998e-01 1.490986e-18
    outer loop
      vertex   1.368857e+01 2.169367e+00 9.000000e-01
      vertex   1.341878e+01 2.290789e+00 0.000000e+00
      vertex   1.341878e+01 2.290789e+00 9.000000e-01
    endloop
  endfacet
  facet normal 2.975031e-01 9.547209e-01 0.000000e+00
    outer loop
      vertex   1.341878e+01 2.290789e+00 9.000000e-01
      vertex   1.341878e+01 2.290789e+00 0.000000e+00
      vertex   1.313632e+01 2.378807e+00 0.000000e+00
    endloop
  endfacet
  facet normal 2.975031e-01 9.547209e-01 2.314238e-19
    outer loop
      vertex   1.341878e+01 2.290789e+00 9.000000e-01
      vertex   1.313632e+01 2.378807e+00 0.000000e+00
      vertex   1.313632e+01 2.378807e+00 9.000000e-01
    endloop
  endfacet
  facet normal 1.802550e-01 9.836199e-01 0.000000e+00
    outer loop
      vertex   1.313632e+01 2.378807e+00 9.000000e-01
      vertex   1.313632e+01 2.378807e+00 0.000000e+00
      vertex   1.284531e+01 2.432136e+00 0.000000e+00
    endloop
  endfacet
  facet normal 1.802550e-01 9.836199e-01 -1.623981e-18
    outer loop
      vertex   1.313632e+01 2.378807e+00 9.000000e-01
      vertex   1.284531e+01 2.432136e+00 0.000000e+00
      vertex   1.284531e+01 2.432136e+00 9.000000e-01
    endloop
  endfacet
  facet normal 6.037850e-02 9.981756e-01 0.000000e+00
    outer loop
      vertex   1.284531e+01 2.432136e+00 9.000000e-01
      vertex   1.284531e+01 2.432136e+00 0.000000e+00
      vertex   1.255000e+01 2.450000e+00 9.000000e-01
    endloop
  endfacet
  facet normal 6.037850e-02 9.981756e-01 0.000000e+00
    outer loop
      vertex   1.255000e+01 2.450000e+00 9.000000e-01
      vertex   1.284531e+01 2.432136e+00 0.000000e+00
      vertex   1.255000e+01 2.450000e+00 0.000000e+00
    endloop
  endfacet
  facet normal 0.000000e+00 -1.000000e+00 0.000000e+00
    outer loop
      vertex   -1.500000e+01 -2.450000e+00 0.000000e+00
      vertex   1.255000e+01 -2.450000e+00 0.000000e+00
      vertex   -1.500000e+01 -2.450000e+00 9.000000e-01
    endloop
  endfacet
  facet normal 0.000000e+00 -1.000000e+00 0.000000e+00
    outer loop
      vertex   -1.500000e+01 -2.450000e+00 9.000000e-01
      vertex   1.255000e+01 -2.450000e+00 0.000000e+00
      vertex   1.255000e+01 -2.450000e+00 9.000000e-01
    endloop
  endfacet
  facet normal 0.000000e+00 -0.000000e+00 1.000000e+00
    outer loop
      vertex   1.255000e+01 -2.450000e+00 9.000000e-01
      vertex   1.438385e+01 -1.624651e+00 9.000000e-01
      vertex   -1.500000e+01 -2.450000e+00 9.000000e-01
    endloop
  endfacet
  facet normal 0.000000e+00 0.000000e+00 1.000000e+00
    outer loop
      vertex   -1.500000e+01 -2.450000e+00 9.000000e-01
      vertex   1.438385e+01 -1.624651e+00 9.000000e-01
      vertex   1.456631e+01 -1.391759e+00 9.000000e-01
    endloop
  endfacet
  facet normal 0.000000e+00 0.000000e+00 1.000000e+00
    outer loop
      vertex   -1.500000e+01 -2.450000e+00 9.000000e-01
      vertex   1.456631e+01 -1.391759e+00 9.000000e-01
      vertex   1.471937e+01 -1.138572e+00 9.000000e-01
    endloop
  endfacet
  facet normal 0.000000e+00 -0.000000e+00 1.000000e+00
    outer loop
      vertex   1.284531e+01 -2.432137e+00 9.000000e-01
      vertex   1.313632e+01 -2.378808e+00 9.000000e-01
      vertex   1.255000e+01 -2.450000e+00 9.000000e-01
    endloop
  endfacet
  facet normal 0.000000e+00 0.000000e+00 1.000000e+00
    outer loop
      vertex   1.255000e+01 -2.450000e+00 9.000000e-01
      vertex   1.313632e+01 -2.378808e+00 9.000000e-01
      vertex   1.341878e+01 -2.290790e+00 9.000000e-01
    endloop
  endfacet
  facet normal 0.000000e+00 0.000000e+00 1.000000e+00
    outer loop
      vertex   1.255000e+01 -2.450000e+00 9.000000e-01
      vertex   1.341878e+01 -2.290790e+00 9.000000e-01
      vertex   1.368857e+01 -2.169368e+00 9.000000e-01
    endloop
  endfacet
  facet normal 0.000000e+00 -0.000000e+00 1.000000e+00
    outer loop
      vertex   1.368857e+01 -2.169368e+00 9.000000e-01
      vertex   1.394176e+01 -2.016311e+00 9.000000e-01
      vertex   1.255000e+01 -2.450000e+00 9.000000e-01
    endloop
  endfacet
  facet normal 0.000000e+00 0.000000e+00 1.000000e+00
    outer loop
      vertex   1.255000e+01 -2.450000e+00 9.000000e-01
      vertex   1.394176e+01 -2.016311e+00 9.000000e-01
      vertex   1.417465e+01 -1.833852e+00 9.000000e-01
    endloop
  endfacet
  facet normal 0.000000e+00 0.000000e+00 1.000000e+00
    outer loop
      vertex   1.255000e+01 -2.450000e+00 9.000000e-01
      vertex   1.417465e+01 -1.833852e+00 9.000000e-01
      vertex   1.438385e+01 -1.624651e+00 9.000000e-01
    endloop
  endfacet
  facet normal 0.000000e+00 -0.000000e+00 1.000000e+00
    outer loop
      vertex   1.471937e+01 -1.138572e+00 9.000000e-01
      vertex   1.484079e+01 -8.687823e-01 9.000000e-01
      vertex   -1.500000e+01 -2.450000e+00 9.000000e-01
    endloop
  endfacet
  facet normal 0.000000e+00 0.000000e+00 1.000000e+00
    outer loop
      vertex   -1.500000e+01 -2.450000e+00 9.000000e-01
      vertex   1.484079e+01 -8.687823e-01 9.000000e-01
      vertex   1.492881e+01 -5.863238e-01 9.000000e-01
    endloop
  endfacet
  facet normal 0.000000e+00 0.000000e+00 1.000000e+00
    outer loop
      vertex   -1.500000e+01 -2.450000e+00 9.000000e-01
      vertex   1.492881e+01 -5.863238e-01 9.000000e-01
      vertex   1.498214e+01 -2.953152e-01 9.000000e-01
    endloop
  endfacet
  facet normal 0.000000e+00 -0.000000e+00 1.000000e+00
    outer loop
      vertex   1.498214e+01 -2.953152e-01 9.000000e-01
      vertex   1.500000e+01 -3.725290e-07 9.000000e-01
      vertex   -1.500000e+01 -2.450000e+00 9.000000e-01
    endloop
  endfacet
  facet normal 0.000000e+00 0.000000e+00 1.000000e+00
    outer loop
      vertex   -1.500000e+01 -2.450000e+00 9.000000e-01
      vertex   1.500000e+01 -3.725290e-07 9.000000e-01
      vertex   -1.500000e+01 2.450000e+00 9.000000e-01
    endloop
  endfacet
  facet normal 0.000000e+00 0.000000e+00 1.000000e+00
    outer loop
      vertex   -1.500000e+01 2.450000e+00 9.000000e-01
      vertex   1.500000e+01 -3.725290e-07 9.000000e-01
      vertex   1.498214e+01 2.953145e-01 9.000000e-01
    endloop
  endfacet
  facet normal 0.000000e+00 0.000000e+00 1.000000e+00
    outer loop
      vertex   -1.500000e+01 2.450000e+00 9.000000e-01
      vertex   1.498214e+01 2.953145e-01 9.000000e-01
      vertex   1.492881e+01 5.863230e-01 9.000000e-01
    endloop
  endfacet
  facet normal 0.000000e+00 0.000000e+00 1.000000e+00
    outer loop
      vertex   1.492881e+01 5.863230e-01 9.000000e-01
      vertex   1.484079e+01 8.687816e-01 9.000000e-01
      vertex   -1.500000e+01 2.450000e+00 9.000000e-01
    endloop
  endfacet
  facet normal 0.000000e+00 0.000000e+00 1.000000e+00
    outer loop
      vertex   -1.500000e+01 2.450000e+00 9.000000e-01
      vertex   1.484079e+01 8.687816e-01 9.000000e-01
      vertex   1.471937e+01 1.138571e+00 9.000000e-01
    endloop
  endfacet
  facet normal 0.000000e+00 0.000000e+00 1.000000e+00
    outer loop
      vertex   -1.500000e+01 2.450000e+00 9.000000e-01
      vertex   1.471937e+01 1.138571e+00 9.000000e-01
      vertex   1.456631e+01 1.391758e+00 9.000000e-01
    endloop
  endfacet
  facet normal 0.000000e+00 0.000000e+00 1.000000e+00
    outer loop
      vertex   1.456631e+01 1.391758e+00 9.000000e-01
      vertex   1.438385e+01 1.624650e+00 9.000000e-01
      vertex   -1.500000e+01 2.450000e+00 9.000000e-01
    endloop
  endfacet
  facet normal -0.000000e+00 0.000000e+00 1.000000e+00
    outer loop
      vertex   -1.500000e+01 2.450000e+00 9.000000e-01
      vertex   1.438385e+01 1.624650e+00 9.000000e-01
      vertex   1.255000e+01 2.450000e+00 9.000000e-01
    endloop
  endfacet
  facet normal 0.000000e+00 0.000000e+00 1.000000e+00
    outer loop
      vertex   1.255000e+01 2.450000e+00 9.000000e-01
      vertex   1.438385e+01 1.624650e+00 9.000000e-01
      vertex   1.417465e+01 1.833851e+00 9.000000e-01
    endloop
  endfacet
  facet normal 0.000000e+00 0.000000e+00 1.000000e+00
    outer loop
      vertex   1.255000e+01 2.450000e+00 9.000000e-01
      vertex   1.417465e+01 1.833851e+00 9.000000e-01
      vertex   1.394176e+01 2.016310e+00 9.000000e-01
    endloop
  endfacet
  facet normal 0.000000e+00 0.000000e+00 1.000000e+00
    outer loop
      vertex   1.394176e+01 2.016310e+00 9.000000e-01
      vertex   1.368857e+01 2.169367e+00 9.000000e-01
      vertex   1.255000e+01 2.450000e+00 9.000000e-01
    endloop
  endfacet
  facet normal 0.000000e+00 0.000000e+00 1.000000e+00
    outer loop
      vertex   1.255000e+01 2.450000e+00 9.000000e-01
      vertex   1.368857e+01 2.169367e+00 9.000000e-01
      vertex   1.341878e+01 2.290789e+00 9.000000e-01
    endloop
  endfacet
  facet normal 0.000000e+00 0.000000e+00 1.000000e+00
    outer loop
      vertex   1.255000e+01 2.450000e+00 9.000000e-01
      vertex   1.341878e+01 2.290789e+00 9.000000e-01
      vertex   1.313632e+01 2.378807e+00 9.000000e-01
    endloop
  endfacet
  facet normal 0.000000e+00 0.000000e+00 1.000000e+00
    outer loop
      vertex   1.313632e+01 2.378807e+00 9.000000e-01
      vertex   1.284531e+01 2.432136e+00 9.000000e-01
      vertex   1.255000e+01 2.450000e+00 9.000000e-01
    endloop
  endfacet
  facet normal 0.000000e+00 0.000000e+00 -1.000000e+00
    outer loop
      vertex   -1.500000e+01 -2.450000e+00 0.000000e+00
      vertex   1.438385e+01 -1.624651e+00 0.000000e+00
      vertex   1.255000e+01 -2.450000e+00 0.000000e+00
    endloop
  endfacet
  facet normal 0.000000e+00 0.000000e+00 -1.000000e+00
    outer loop
      vertex   1.255000e+01 -2.450000e+00 0.000000e+00
      vertex   1.438385e+01 -1.624651e+00 0.000000e+00
      vertex   1.417465e+01 -1.833852e+00 0.000000e+00
    endloop
  endfacet
  facet normal 0.000000e+00 0.000000e+00 -1.000000e+00
    outer loop
      vertex   1.255000e+01 -2.450000e+00 0.000000e+00
      vertex   1.417465e+01 -1.833852e+00 0.000000e+00
      vertex   1.394176e+01 -2.016311e+00 0.000000e+00
    endloop
  endfacet
  facet normal 0.000000e+00 0.000000e+00 -1.000000e+00
    outer loop
      vertex   -1.500000e+01 2.450000e+00 0.000000e+00
      vertex   1.500000e+01 -3.725290e-07 0.000000e+00
      vertex   -1.500000e+01 -2.450000e+00 0.000000e+00
    endloop
  endfacet
  facet normal 0.000000e+00 0.000000e+00 -1.000000e+00
    outer loop
      vertex   -1.500000e+01 -2.450000e+00 0.000000e+00
      vertex   1.500000e+01 -3.725290e-07 0.000000e+00
      vertex   1.498214e+01 -2.953152e-01 0.000000e+00
    endloop
  endfacet
  facet normal 0.000000e+00 0.000000e+00 -1.000000e+00
    outer loop
      vertex   -1.500000e+01 -2.450000e+00 0.000000e+00
      vertex   1.498214e+01 -2.953152e-01 0.000000e+00
      vertex   1.492881e+01 -5.863238e-01 0.000000e+00
    endloop
  endfacet
  facet normal -0.000000e+00 -0.000000e+00 -1.000000e+00
    outer loop
      vertex   1.255000e+01 2.450000e+00 0.000000e+00
      vertex   1.438385e+01 1.624650e+00 0.000000e+00
      vertex   -1.500000e+01 2.450000e+00 0.000000e+00
    endloop
  endfacet
  facet normal 0.000000e+00 0.000000e+00 -1.000000e+00
    outer loop
      vertex   -1.500000e+01 2.450000e+00 0.000000e+00
      vertex   1.438385e+01 1.624650e+00 0.000000e+00
      vertex   1.456631e+01 1.391758e+00 0.000000e+00
    endloop
  endfacet
  facet normal 0.000000e+00 0.000000e+00 -1.000000e+00
    outer loop
      vertex   -1.500000e+01 2.450000e+00 0.000000e+00
      vertex   1.456631e+01 1.391758e+00 0.000000e+00
      vertex   1.471937e+01 1.138571e+00 0.000000e+00
    endloop
  endfacet
  facet normal -0.000000e+00 -0.000000e+00 -1.000000e+00
    outer loop
      vertex   1.284531e+01 2.432136e+00 0.000000e+00
      vertex   1.313632e+01 2.378807e+00 0.000000e+00
      vertex   1.255000e+01 2.450000e+00 0.000000e+00
    endloop
  endfacet
  facet normal 0.000000e+00 0.000000e+00 -1.000000e+00
    outer loop
      vertex   1.255000e+01 2.450000e+00 0.000000e+00
      vertex   1.313632e+01 2.378807e+00 0.000000e+00
      vertex   1.341878e+01 2.290789e+00 0.000000e+00
    endloop
  endfacet
  facet normal 0.000000e+00 0.000000e+00 -1.000000e+00
    outer loop
      vertex   1.255000e+01 2.450000e+00 0.000000e+00
      vertex   1.341878e+01 2.290789e+00 0.000000e+00
      vertex   1.368857e+01 2.169367e+00 0.000000e+00
    endloop
  endfacet
  facet normal -0.000000e+00 -0.000000e+00 -1.000000e+00
    outer loop
      vertex   1.368857e+01 2.169367e+00 0.000000e+00
      vertex   1.394176e+01 2.016310e+00 0.000000e+00
      vertex   1.255000e+01 2.450000e+00 0.000000e+00
    endloop
  endfacet
  facet normal 0.000000e+00 0.000000e+00 -1.000000e+00
    outer loop
      vertex   1.255000e+01 2.450000e+00 0.000000e+00
      vertex   1.394176e+01 2.016310e+00 0.000000e+00
      vertex   1.417465e+01 1.833851e+00 0.000000e+00
    endloop
  endfacet
  facet normal 0.000000e+00 0.000000e+00 -1.000000e+00
    outer loop
      vertex   1.255000e+01 2.450000e+00 0.000000e+00
      vertex   1.417465e+01 1.833851e+00 0.000000e+00
      vertex   1.438385e+01 1.624650e+00 0.000000e+00
    endloop
  endfacet
  facet normal -0.000000e+00 -0.000000e+00 -1.000000e+00
    outer loop
      vertex   1.471937e+01 1.138571e+00 0.000000e+00
      vertex   1.484079e+01 8.687816e-01 0.000000e+00
      vertex   -1.500000e+01 2.450000e+00 0.000000e+00
    endloop
  endfacet
  facet normal 0.000000e+00 0.000000e+00 -1.000000e+00
    outer loop
      vertex   -1.500000e+01 2.450000e+00 0.000000e+00
      vertex   1.484079e+01 8.687816e-01 0.000000e+00
      vertex   1.492881e+01 5.863230e-01 0.000000e+00
    endloop
  endfacet
  facet normal 0.000000e+00 0.000000e+00 -1.000000e+00
    outer loop
      vertex   -1.500000e+01 2.450000e+00 0.000000e+00
      vertex   1.492881e+01 5.863230e-01 0.000000e+00
      vertex   1.498214e+01 2.953145e-01 0.000000e+00
    endloop
  endfacet
  facet normal -0.000000e+00 -0.000000e+00 -1.000000e+00
    outer loop
      vertex   1.498214e+01 2.953145e-01 0.000000e+00
      vertex   1.500000e+01 -3.725290e-07 0.000000e+00
      vertex   -1.500000e+01 2.450000e+00 0.000000e+00
    endloop
  endfacet
  facet normal 0.000000e+00 0.000000e+00 -1.000000e+00
    outer loop
      vertex   1.492881e+01 -5.863238e-01 0.000000e+00
      vertex   1.484079e+01 -8.687823e-01 0.000000e+00
      vertex   -1.500000e+01 -2.450000e+00 0.000000e+00
    endloop
  endfacet
  facet normal 0.000000e+00 0.000000e+00 -1.000000e+00
    outer loop
      vertex   -1.500000e+01 -2.450000e+00 0.000000e+00
      vertex   1.484079e+01 -8.687823e-01 0.000000e+00
      vertex   1.471937e+01 -1.138572e+00 0.000000e+00
    endloop
  endfacet
  facet normal 0.000000e+00 0.000000e+00 -1.000000e+00
    outer loop
      vertex   -1.500000e+01 -2.450000e+00 0.000000e+00
      vertex   1.471937e+01 -1.138572e+00 0.000000e+00
      vertex   1.456631e+01 -1.391759e+00 0.000000e+00
    endloop
  endfacet
  facet normal 0.000000e+00 0.000000e+00 -1.000000e+00
    outer loop
      vertex   1.456631e+01 -1.391759e+00 0.000000e+00
      vertex   1.438385e+01 -1.624651e+00 0.000000e+00
      vertex   -1.500000e+01 -2.450000e+00 0.000000e+00
    endloop
  endfacet
  facet normal 0.000000e+00 0.000000e+00 -1.000000e+00
    outer loop
      vertex   1.394176e+01 -2.016311e+00 0.000000e+00
      vertex   1.368857e+01 -2.169368e+00 0.000000e+00
      vertex   1.255000e+01 -2.450000e+00 0.000000e+00
    endloop
  endfacet
  facet normal 0.000000e+00 0.000000e+00 -1.000000e+00
    outer loop
      vertex   1.255000e+01 -2.450000e+00 0.000000e+00
      vertex   1.368857e+01 -2.169368e+00 0.000000e+00
      vertex   1.341878e+01 -2.290790e+00 0.000000e+00
    endloop
  endfacet
  facet normal 0.000000e+00 0.000000e+00 -1.000000e+00
    outer loop
      vertex   1.255000e+01 -2.450000e+00 0.000000e+00
      vertex   1.341878e+01 -2.290790e+00 0.000000e+00
      vertex   1.313632e+01 -2.378808e+00 0.000000e+00
    endloop
  endfacet
  facet normal 0.000000e+00 0.000000e+00 -1.000000e+00
    outer loop
      vertex   1.313632e+01 -2.378808e+00 0.000000e+00
      vertex   1.284531e+01 -2.432137e+00 0.000000e+00
      vertex   1.255000e+01 -2.450000e+00 0.000000e+00
    endloop
  endfacet
endsolid
